<svg width="304" height="79" viewBox="0 0 304 79" fill="none" xmlns="http://www.w3.org/2000/svg">
<path d="M41 55V56H23V55H41Z" fill="#CFD6E7" fill-opacity="0.8"/>
<path d="M41 38V39H23V38H41Z" fill="#CFD6E7" fill-opacity="0.8"/>
<path d="M42 56L41 56L41 39L42 39L42 56Z" fill="#CFD6E7" fill-opacity="0.8"/>
<path d="M24 56L23 56L23 39L24 39L24 56Z" fill="#CFD6E7" fill-opacity="0.8"/>
<path d="M42 56L41 56L41 39L42 39L42 56Z" fill="#CFD6E7" fill-opacity="0.8"/>
<path d="M41 38V39H23V38H41Z" fill="#CFD6E7" fill-opacity="0.8"/>
<path d="M23 38V39H4V38H23Z" fill="#CFD6E7" fill-opacity="0.8"/>
<path d="M23 22V24H4V22H23Z" fill="#CFD6E7" fill-opacity="0.8"/>
<path d="M24 24H23V6H24V24Z" fill="#CFD6E7" fill-opacity="0.8"/>
<path d="M42 24H41V6H42V24Z" fill="#CFD6E7" fill-opacity="0.8"/>
<path d="M61 24H60V6H61V24Z" fill="#CFD6E7" fill-opacity="0.8"/>
<path d="M24 76H23V56H24V76Z" fill="#CFD6E7" fill-opacity="0.8"/>
<path d="M42 76H41V56H42V76Z" fill="#CFD6E7" fill-opacity="0.8"/>
<path d="M61 76H60V56H61V76Z" fill="#CFD6E7" fill-opacity="0.8"/>
<path d="M77 22V24H60V22H77Z" fill="#CFD6E7" fill-opacity="0.8"/>
<path d="M77 38V39H60V38H77Z" fill="#CFD6E7" fill-opacity="0.8"/>
<path d="M23 55V56H4V55H23Z" fill="#CFD6E7" fill-opacity="0.8"/>
<path d="M77 55V56H60V55H77Z" fill="#CFD6E7" fill-opacity="0.8"/>
<path d="M41 22V24H23V22H41Z" fill="#CFD6E7" fill-opacity="0.8"/>
<path d="M42 39L41 39L41 21L42 21L42 39Z" fill="#CFD6E7" fill-opacity="0.8"/>
<path d="M24 39L23 39L23 21L24 21L24 39Z" fill="#CFD6E7" fill-opacity="0.8"/>
<path d="M42 39L41 39L41 21L42 21L42 39Z" fill="#CFD6E7" fill-opacity="0.8"/>
<path d="M60 55V56H41V55H60Z" fill="#CFD6E7" fill-opacity="0.8"/>
<path d="M60 38V39H41V38H60Z" fill="#CFD6E7" fill-opacity="0.8"/>
<path d="M61 56L60 56L60 39L61 39L61 56Z" fill="#CFD6E7" fill-opacity="0.8"/>
<path d="M42 56L41 56L41 39L42 39L42 56Z" fill="#CFD6E7" fill-opacity="0.8"/>
<path d="M61 56L60 56L60 39L61 39L61 56Z" fill="#CFD6E7" fill-opacity="0.8"/>
<path d="M60 38V39H41V38H60Z" fill="#CFD6E7" fill-opacity="0.8"/>
<path d="M60 22V24H41V22H60Z" fill="#CFD6E7" fill-opacity="0.8"/>
<path d="M61 39L60 39L60 21L61 21L61 39Z" fill="#CFD6E7" fill-opacity="0.8"/>
<path d="M42 39L41 39L41 21L42 21L42 39Z" fill="#CFD6E7" fill-opacity="0.8"/>
<path d="M61 39L60 39L60 21L61 21L61 39Z" fill="#CFD6E7" fill-opacity="0.8"/>
<path d="M34 38C34 39.1046 32.6569 40 31 40C29.3431 40 28 39.1046 28 38C28 36.8954 29.3431 36 31 36C32.6569 36 34 36.8954 34 38Z" fill="#1D43AE"/>
<path d="M43 49.5C43 50.8807 42.1046 52 41 52C39.8954 52 39 50.8807 39 49.5C39 48.1193 39.8954 47 41 47C42.1046 47 43 48.1193 43 49.5Z" fill="#10B981"/>
<path d="M41.9209 47.7502L40.0666 50.5089L27.3987 42.906L29.253 40.1474L41.9209 47.7502Z" fill="#10B981"/>
<path d="M68.0298 31.4664C68.9097 31.9945 69.1709 33.0953 68.6131 33.9251V33.9251C68.0553 34.7549 66.8899 34.9995 66.01 34.4714L56.5285 28.7809C55.6486 28.2529 55.3874 27.1521 55.9452 26.3223V26.3223C56.503 25.4924 57.6685 25.2478 58.5484 25.7759L68.0298 31.4664Z" fill="#10B981"/>
<path d="M42.0859 50.2202L39.245 48.4034L55.6736 25.4665L58.5145 27.2834L42.0859 50.2202Z" fill="#10B981"/>
<path d="M46.8825 44.5166C46.3557 45.2477 45.3004 45.4363 44.5253 44.9377V44.9377C43.7502 44.4392 43.5489 43.4423 44.0756 42.7111L57.6609 23.8536C58.1876 23.1224 59.2429 22.9338 60.018 23.4324V23.4324C60.7931 23.931 60.9944 24.9279 60.4677 25.659L46.8825 44.5166Z" fill="#1E3A8A"/>
<path d="M30.1572 38.8313L31.9137 35.8605L46.5785 43.6019L44.8221 46.5727L30.1572 38.8313Z" fill="#1D43AE"/>
<path d="M17.1553 56.986C16.6316 57.5694 15.7061 57.6409 15.0882 57.1456V57.1456C14.4703 56.6504 14.394 55.7759 14.9177 55.1925L27.1309 41.5869C27.6547 41.0035 28.5802 40.932 29.1981 41.4273V41.4273C29.816 41.9225 29.8923 42.797 29.3686 43.3804L17.1553 56.986Z" fill="#10B981"/>
<path d="M20.5246 49.5104C19.8395 50.1 18.7786 50.0535 18.1548 49.4064V49.4064C17.5311 48.7594 17.5809 47.7569 18.2659 47.1673L29.0073 37.9224C29.6923 37.3328 30.7533 37.3793 31.377 38.0264V38.0264C32.0007 38.6734 31.951 39.6759 31.2659 40.2655L20.5246 49.5104Z" fill="#1D43AE"/>
<path d="M60 26.5C60 27.3284 58.8807 28 57.5 28C56.1193 28 55 27.3284 55 26.5C55 25.6716 56.1193 25 57.5 25C58.8807 25 60 25.6716 60 26.5Z" fill="#10B981"/>
<path d="M32 42C32 43.1046 30.6569 44 29 44C27.3431 44 26 43.1046 26 42C26 40.8954 27.3431 40 29 40C30.6569 40 32 40.8954 32 42Z" fill="#10B981"/>
<path d="M47 44.5C47 45.8807 45.8807 47 44.5 47C43.1193 47 42 45.8807 42 44.5C42 43.1193 43.1193 42 44.5 42C45.8807 42 47 43.1193 47 44.5Z" fill="#1E3A8A"/>
<path d="M97.9274 24.988H104.911C106.399 24.988 107.611 25.12 108.547 25.384C109.507 25.624 110.407 26.104 111.247 26.824C112.879 28.264 113.695 30.196 113.695 32.62C113.695 34.876 113.035 36.664 111.715 37.984C110.299 39.4 108.271 40.108 105.631 40.108H102.607V49H97.9274V24.988ZM102.607 29.02V36.076H104.515C105.883 36.076 106.903 35.824 107.575 35.32C108.439 34.648 108.871 33.712 108.871 32.512C108.871 31.336 108.427 30.424 107.539 29.776C106.819 29.272 105.715 29.02 104.227 29.02H102.607ZM117.643 35.104C119.227 33.64 121.327 32.908 123.943 32.908C126.559 32.908 128.659 33.64 130.243 35.104C131.995 36.688 132.871 38.728 132.871 41.224C132.871 43.696 131.995 45.724 130.243 47.308C128.659 48.772 126.559 49.504 123.943 49.504C121.327 49.504 119.227 48.772 117.643 47.308C115.891 45.724 115.015 43.696 115.015 41.224C115.015 38.728 115.891 36.688 117.643 35.104ZM120.811 44.32C121.651 45.184 122.695 45.616 123.943 45.616C125.191 45.616 126.235 45.184 127.075 44.32C127.915 43.456 128.335 42.424 128.335 41.224C128.335 40 127.915 38.956 127.075 38.092C126.235 37.228 125.191 36.796 123.943 36.796C122.695 36.796 121.651 37.228 120.811 38.092C119.971 38.956 119.551 40 119.551 41.224C119.551 42.424 119.971 43.456 120.811 44.32ZM148.004 33.844V38.164C147.02 37.252 145.82 36.796 144.404 36.796C143.012 36.796 141.932 37.228 141.164 38.092C140.396 38.932 140.012 39.964 140.012 41.188C140.012 42.46 140.432 43.516 141.272 44.356C142.136 45.196 143.228 45.616 144.548 45.616C145.844 45.616 146.996 45.16 148.004 44.248V48.532C146.708 49.18 145.364 49.504 143.972 49.504C141.548 49.504 139.544 48.748 137.96 47.236C136.304 45.676 135.476 43.684 135.476 41.26C135.476 38.62 136.376 36.508 138.176 34.924C139.688 33.58 141.56 32.908 143.792 32.908C145.304 32.908 146.708 33.22 148.004 33.844ZM163.318 37.156H158.998V49H154.606V37.156H150.286V33.412H163.318V37.156Z" fill="url(#paint0_linear_81_2)"/>
<path d="M165.047 49L169.511 24.988H172.895L179.267 40.252L185.927 24.988H189.311L193.343 49H188.591L186.431 34.204L179.987 49H178.403L172.247 34.204L169.799 49H165.047ZM208.215 43.996L212.247 44.644C212.079 45.076 211.851 45.508 211.563 45.94C211.299 46.348 210.879 46.864 210.303 47.488C209.727 48.088 208.947 48.58 207.963 48.964C206.979 49.324 205.851 49.504 204.579 49.504C202.131 49.504 200.139 48.772 198.603 47.308C196.971 45.772 196.155 43.744 196.155 41.224C196.155 38.728 196.947 36.688 198.531 35.104C200.019 33.64 201.975 32.908 204.399 32.908C207.039 32.908 209.067 33.76 210.483 35.464C211.731 36.952 212.355 38.992 212.355 41.584V41.944H200.691C200.691 43 200.943 43.876 201.447 44.572C202.167 45.556 203.211 46.048 204.579 46.048C206.211 46.048 207.423 45.364 208.215 43.996ZM200.835 39.136H208.215C208.047 38.128 207.603 37.36 206.883 36.832C206.187 36.28 205.395 36.004 204.507 36.004C203.643 36.004 202.851 36.28 202.131 36.832C201.435 37.384 201.003 38.152 200.835 39.136ZM226.916 37.156H222.596V49H218.204V37.156H213.884V33.412H226.916V37.156ZM233.613 46.984V57.244H229.221V33.412H233.613V35.428C234.789 33.748 236.481 32.908 238.689 32.908C240.849 32.908 242.625 33.604 244.017 34.996C245.577 36.556 246.357 38.62 246.357 41.188C246.357 43.828 245.541 45.928 243.909 47.488C242.469 48.832 240.705 49.504 238.617 49.504C236.529 49.504 234.861 48.664 233.613 46.984ZM237.501 36.796C236.373 36.796 235.425 37.144 234.657 37.84C233.673 38.68 233.181 39.796 233.181 41.188C233.181 42.604 233.661 43.732 234.621 44.572C235.413 45.268 236.373 45.616 237.501 45.616C238.677 45.616 239.661 45.244 240.453 44.5C241.365 43.66 241.821 42.556 241.821 41.188C241.821 39.844 241.377 38.752 240.489 37.912C239.673 37.168 238.677 36.796 237.501 36.796ZM249.752 33.412H254.144V43.024L261.344 33.412H265.736V49H261.344V39.388L254.144 49H249.752V33.412ZM269.897 33.412H274.289V39.46L280.121 33.412H285.593L278.537 40.36L285.953 49H280.337L274.937 42.556L274.289 43.204V49H269.897V33.412Z" fill="#1E3A8A"/>
<defs>
<linearGradient id="paint0_linear_81_2" x1="95" y1="37" x2="286" y2="37" gradientUnits="userSpaceOnUse">
<stop stop-color="#10B981"/>
<stop offset="0.884615" stop-color="#07533A"/>
</linearGradient>
</defs>
</svg>
